{"title":"Gin no Guardian S01E08 (EngDub) 720p x264 Download","magnet":"magnet:?xt=urn:btih:516f56139f93bf58cdc0ada7e053ff57cdb1180b&dn=Gin+no+Guardian+S01E08+%28EngDub%29+720p+x264+Download&tr=udp%3A%2F%2Ftracker.leechers-paradise.org%3A6969&tr=udp%3A%2F%2Fzer0day.ch%3A1337&tr=udp%3A%2F%2Fopen.demonii.com%3A1337&tr=udp%3A%2F%2Ftracker.coppersurfer.tk%3A6969&tr=udp%3A%2F%2Fexodus.desync.com%3A6969","uploader":"digimaza","categoryP":"video","categoryS":"hd___tv_shows","size":"148943186","seeders":"1","leechers":"3","description":"The Silver Guardian S01E08 (EngDub) 720p x264 Download \r\n\r\n..::File Specs::.. \r\nGeneral \r\n\r\nFormat                                   : Matroska \r\nFormat version                           : Version 4 / Version 2 \r\nFile size                                : 142 MiB \r\nDuration                                 : 13 min 4 s \r\nOverall bit rate                         : 1 518 kb/s \r\n\r\nVideo \r\nID                                       : 1 \r\nFormat                                   : AVC \r\nFormat/Info                              : Advanced Video Codec \r\nFormat profile                           : <a class=\"__cf_email__\" href=\"/cdn-cgi/l/email-protection\" data-cfemail=\"6e260709062e225d405f\">[email&#xA0;protected]</a><script data-cfhash=\"f9e31\" type=\"text/javascript\">/* <![CDATA[ */!function(t,e,r,n,c,a,p){try{t=document.currentScript||function(){for(t=document.getElementsByTagName('script'),e=t.length;e--;)if(t[e].getAttribute('data-cfhash'))return t[e]}();if(t&&(c=t.previousSibling)){p=t.parentNode;if(a=c.getAttribute('data-cfemail')){for(e='',r='0x'+a.substr(0,2)|0,n=2;a.length-n;n+=2)e+='%'+('0'+('0x'+a.substr(n,2)^r).toString(16)).slice(-2);p.replaceChild(document.createTextNode(decodeURIComponent(e)),c)}p.removeChild(t)}}catch(u){}}()/* ]]> */</script> \r\nFormat settings, CABAC                   : Yes \r\nFormat settings, ReFrames                : 1 frame \r\nCodec ID                                 : V_MPEG4/ISO/AVC \r\nDuration                                 : 13 min 4 s \r\nBit rate                                 : 1 324 kb/s \r\nWidth                                    : 1 280 pixels \r\nHeight                                   : 720 pixels \r\nDisplay aspect ratio                     : 16:9 \r\nFrame rate mode                          : Constant \r\nFrame rate                               : 23.976 (24000/1001) FPS \r\nColor space                              : YUV \r\nChroma subsampling                       : 4:2:0 \r\nBit depth                                : 8 bits \r\nScan type                                : Progressive \r\nBits/(Pixel*Frame)                       : 0.060 \r\nStream size                              : 124 MiB (87%) \r\nDefault                                  : Yes \r\nForced                                   : No \r\nColor range                              : Limited \r\nColor primaries                          : BT.709 \r\nTransfer characteristics                 : BT.709 \r\nMatrix coefficients                      : BT.709 \r\n\r\nAudio \r\nID                                       : 2 \r\nFormat                                   : AAC \r\nFormat/Info                              : Advanced Audio Codec \r\nFormat profile                           : LC \r\nCodec ID                                 : A_AAC \r\nDuration                                 : 13 min 4 s \r\nBit rate                                 : 192 kb/s \r\nChannel(s)                               : 2 channels \r\nChannel positions                        : Front: L R \r\nSampling rate                            : 44.1 kHz \r\nFrame rate                               : 43.066 FPS (1024 spf) \r\nCompression mode                         : Lossy \r\nStream size                              : 18.0 MiB (13%) \r\n\r\n..::ScreenShots::.. \r\n <a href=\"\nhttps://s9.postimg.org/jveaq9slr/vlcsnap-2017-06-22-01h49m49s291.png\" rel=\"nofollow\" target=\"_NEW\">\nhttps://s9.postimg.org/jveaq9slr/vlcsnap-2017-06-22-01h49m49s291.png</a>  <a href=\"\nhttps://s9.postimg.org/ttz9cr21b/vlcsnap-2017-06-22-01h49m59s447.png\" rel=\"nofollow\" target=\"_NEW\">\nhttps://s9.postimg.org/ttz9cr21b/vlcsnap-2017-06-22-01h49m59s447.png</a> \r\n\r\n================================================================ \r\nSeed Seed Seed Seed Seed Seed Seed Seed Seed Seed Seed Seed Seed \r\nTo direct download or Watch Online this file, Visit. \r\r\nSeed Seed Seed Seed Seed Seed Seed Seed Seed Seed Seed Seed Seed \r\n================================================================","last_updated":"2017-06-22T12:02:55.353Z","parsed":{"xt":"urn:btih:516f56139f93bf58cdc0ada7e053ff57cdb1180b","dn":"Gin no Guardian S01E08 (EngDub) 720p x264 Download","tr":["udp://exodus.desync.com:6969","udp://open.demonii.com:1337","udp://tracker.coppersurfer.tk:6969","udp://tracker.leechers-paradise.org:6969","udp://zer0day.ch:1337"],"infoHash":"516f56139f93bf58cdc0ada7e053ff57cdb1180b","infoHashBuffer":{"type":"Buffer","data":[81,111,86,19,159,147,191,88,205,192,173,167,224,83,255,87,205,177,24,11]},"name":"Gin no Guardian S01E08 (EngDub) 720p x264 Download","announce":["udp://exodus.desync.com:6969","udp://open.demonii.com:1337","udp://tracker.coppersurfer.tk:6969","udp://tracker.leechers-paradise.org:6969","udp://zer0day.ch:1337"],"urlList":[]}}